<?xml version="1.0" encoding="UTF-8" standalone="no"?>
<!DOCTYPE svg PUBLIC "-//W3C//DTD SVG 1.1//EN" "http://www.w3.org/Graphics/SVG/1.1/DTD/svg11.dtd">
<svg width="100%" height="100%" viewBox="0 0 334 163" version="1.1" xmlns="http://www.w3.org/2000/svg" xmlns:xlink="http://www.w3.org/1999/xlink" xml:space="preserve" xmlns:serif="http://www.serif.com/" style="fill-rule:evenodd;clip-rule:evenodd;stroke-linejoin:round;stroke-miterlimit:1.41421;">
    <path id="path3768" d="M44.575,116.359C34.847,101.871 35.757,93.833 51.18,77.688C52.717,76.08 54.398,74.391 56.227,72.607C60.88,68.068 64.352,64.482 66.994,61.32C72.263,55.014 74.233,50.39 75.691,43.244C76.368,39.922 77.411,37.041 78.007,36.843C79.603,36.31 84.041,41.373 86.988,47.088C88.743,50.491 89.693,54.164 89.962,58.588C90.565,68.51 87.517,73.458 72.665,86.662C59.328,98.519 55.985,102.85 52.761,112.447C50.106,120.352 47.948,121.383 44.575,116.359Z" style="fill:rgb(236,130,8);fill-rule:nonzero;stroke:black;stroke-width:0.31px;"/>
    <path id="path3766" d="M53.86,103.161C57.065,96.939 61.239,92.495 72.303,83.527C81.403,76.15 86.896,68.676 87.938,62.253C88.69,57.616 86.064,49.525 81.932,43.747L78.771,39.329L78.472,42.208C78.071,46.08 77.091,49.728 75.368,53.41C75.368,53.41 66.49,67.108 57.235,75.757C46.925,85.39 42.358,91.534 40.91,97.717C40.073,101.289 42.499,108.888 45.903,113.349L48.703,117.02L49.975,112.627C50.674,110.211 52.423,105.951 53.86,103.161Z" style="fill:rgb(236,130,8);fill-rule:nonzero;"/>
    <g id="path3764" transform="matrix(1,0,0,1,6,0)">
        <path d="M105.271,108.088C105.271,107.263 106.155,106.588 107.236,106.588C110.762,106.588 111.271,103.45 111.271,81.693C111.271,61.6 111.178,60.579 109.165,58.703C105.372,55.17 107.517,54.588 124.33,54.588L140.271,54.588L140.256,57.338C140.229,62.086 138.901,63.217 135.005,61.809C133.148,61.137 129.28,60.588 126.41,60.588L121.19,60.588L121.771,77.088L130.021,77.051L138.271,77.014L138.271,82.301C138.271,88.048 136.68,89.306 134.143,85.565C133.085,84.005 131.512,83.49 127.271,83.315L121.771,83.088L121.882,93.318C122.001,104.34 122.85,106.588 126.893,106.588C128.34,106.588 129.271,107.175 129.271,108.088C129.271,109.338 127.271,109.588 117.271,109.588C107.271,109.588 105.271,109.338 105.271,108.088Z" style="fill:white;fill-rule:nonzero;"/>
    </g>
    <path id="path3762" d="M127,107.984C126.668,107.651 125.805,107.616 125.084,107.905C124.286,108.224 124.523,108.461 125.688,108.509C126.742,108.552 127.333,108.316 127,107.984L127,107.984Z" style="fill:white;fill-rule:nonzero;"/>
    <g id="path3760" transform="matrix(1,0,0,1,3,0)">
        <path d="M119.446,95.086C119.145,86.061 119.375,82.167 120.273,81.086C121.132,80.05 121.17,79.588 120.393,79.588C119.634,79.588 119.271,76.166 119.271,69.017L119.271,58.446L128.273,58.767C133.225,58.943 137.275,58.75 137.273,58.338C137.272,57.925 131.984,57.587 125.521,57.587L113.771,57.586L114.084,76.837C114.257,87.425 113.987,98.675 113.486,101.838L112.574,107.588L119.862,107.588L119.446,95.086L119.446,95.086Z" style="fill:white;fill-rule:nonzero;"/>
    </g>
    <path id="path3758" d="M136.271,80.588C136.271,80.038 135.344,79.588 134.212,79.588C133.08,79.588 132.431,80.038 132.771,80.588C133.111,81.138 134.038,81.588 134.83,81.588C135.623,81.588 136.271,81.138 136.271,80.588Z" style="fill:white;fill-rule:nonzero;"/>
    <g id="path3754" transform="matrix(1,0,0,1,3,0)">
        <path d="M178.273,106.838C178.274,106.425 174.965,106.234 170.919,106.412C160.006,106.892 160.271,107.437 160.271,84.516L160.271,65.588L157.521,65.59L154.771,65.592L154.771,107.589L166.521,107.589C172.984,107.588 178.272,107.25 178.273,106.838L178.273,106.838Z" style="fill:white;fill-rule:nonzero;"/>
    </g>
    <g transform="matrix(1,0,0,1,6,0)">
        <path d="M205.277,61.77C205.371,61.771 205.466,61.781 205.563,61.796C206.95,62.012 209.366,66.614 214.903,79.588C225.443,104.282 226.083,105.503 228.862,106.2C230.187,106.533 231.271,107.431 231.271,108.196C231.271,109.277 229.355,109.588 222.698,109.588C215.059,109.588 214.165,109.397 214.492,107.838C214.695,106.875 213.87,103.613 212.661,100.588L210.461,95.088L196.701,94.509L194.513,99.688C192.26,105.021 192.332,106.588 194.83,106.588C195.623,106.588 196.271,107.263 196.271,108.088C196.271,109.38 192.882,109.588 171.771,109.588C152.705,109.588 147.271,109.308 147.271,108.325C147.271,107.63 148.284,106.618 149.521,106.075C151.722,105.109 151.777,104.688 152.044,86.661C152.216,75.061 151.938,67.855 151.294,67.211C150.731,66.648 150.271,65.378 150.271,64.388C150.271,62.826 151.197,62.588 157.271,62.588C163.604,62.588 164.271,62.778 164.271,64.588C164.271,65.688 163.821,66.588 163.271,66.588C161.611,66.588 161.965,99.787 163.65,102.092C165.577,104.726 175.83,104.906 177.71,102.338C179.666,99.667 181.271,100.246 181.271,103.623C181.271,109.867 184.837,104.95 191.231,89.889C201.757,65.098 203.348,61.768 205.253,61.77L205.277,61.77ZM206.031,83.587C204.843,80.287 203.587,77.925 203.24,78.337C202.892,78.75 201.656,81.45 200.494,84.338L198.382,89.588L208.19,89.588L206.031,83.587Z" style="fill:white;"/>
    </g>
    <path id="path3748" d="M198.24,83.088C198.24,82.538 197.804,82.763 197.271,83.588C196.738,84.413 196.302,85.538 196.302,86.088C196.302,86.638 196.738,86.413 197.271,85.588C197.804,84.763 198.24,83.638 198.24,83.088Z" style="fill:white;fill-rule:nonzero;"/>
    <path id="path3746" d="M200.24,78.088C200.24,77.538 199.804,77.763 199.271,78.588C198.738,79.413 198.302,80.538 198.302,81.088C198.302,81.638 198.738,81.413 199.271,80.588C199.804,79.763 200.24,78.638 200.24,78.088Z" style="fill:white;fill-rule:nonzero;"/>
    <g id="path3744" transform="matrix(1,0,0,1,6,0)">
        <path d="M232.271,108.088C232.271,107.263 232.93,106.588 233.736,106.588C234.542,106.588 235.667,105.717 236.236,104.654C237.595,102.114 237.627,67.926 236.271,67.088C235.721,66.748 235.271,65.596 235.271,64.529C235.271,62.815 236.001,62.588 241.521,62.587L247.771,62.586L247.432,83.127C247.069,105.092 247.353,106.588 251.893,106.588C253.34,106.588 254.271,107.175 254.271,108.088C254.271,109.33 252.382,109.588 243.271,109.588C234.16,109.588 232.271,109.33 232.271,108.088Z" style="fill:white;fill-rule:nonzero;"/>
    </g>
    <g id="path3742" transform="matrix(1,0,0,1,6,0)">
        <path d="M245.187,86.588L245.022,65.588L242.183,65.588L239.345,65.588L239.44,107.588L245.353,107.588L245.187,86.588L245.187,86.588Z" style="fill:white;fill-rule:nonzero;"/>
    </g>
    <g id="path3738" transform="matrix(1,0,0,1,3,0)">
        <path d="M273.559,97.338C273.442,91.7 273.329,82.25 273.309,76.338C273.271,65.593 273.27,65.588 270.81,65.588L268.348,65.588L268.06,86.589L267.771,107.59L270.771,107.589L273.771,107.588L273.559,97.338Z" style="fill:white;fill-rule:nonzero;"/>
    </g>
    <path id="path3736" d="M298.178,102.838C291.54,95.86 286.587,90.035 286.134,88.676C285.846,87.814 285.044,87.757 283.253,88.471C281.888,89.015 281.264,89.49 281.866,89.524C282.468,89.559 285.04,92.42 287.581,95.881C292.479,102.552 295.813,105.983 298.271,106.882C302.325,108.364 302.298,107.169 298.178,102.838L298.178,102.838Z" style="fill:white;fill-rule:nonzero;"/>
    <g transform="matrix(1,0,0,1,7,0)">
        <path d="M260.271,108.157C260.271,107.371 261.284,106.583 262.521,106.407C264.757,106.09 264.773,105.965 265.042,86.338C265.22,73.388 264.962,66.588 264.292,66.588C263.731,66.588 263.271,65.688 263.271,64.588C263.271,62.712 263.936,62.588 274.021,62.593C279.934,62.597 286.438,63.062 288.476,63.628C297.435,66.116 299.186,77.414 291.762,84.828L289.018,87.568L291.511,90.828C297.395,98.525 303.614,104.582 306.822,105.743C308.719,106.428 310.271,107.574 310.271,108.289C310.271,110.243 297.817,110.026 294.425,108.012C292.346,106.777 284.515,97.571 281.261,92.536C280.981,92.102 279.518,91.437 278.011,91.059L275.271,90.371L275.271,97.279C275.271,104.418 276.25,106.588 279.471,106.588C280.461,106.588 281.271,107.263 281.271,108.088C281.271,109.326 279.438,109.588 270.771,109.588C262.332,109.588 260.271,109.307 260.271,108.157ZM284.498,83.838C289.893,77.694 285.43,67.588 277.321,67.588C275.406,67.588 275.271,68.182 275.271,76.588L275.271,85.588L279.116,85.588C281.526,85.588 283.535,84.935 284.498,83.838Z" style="fill:white;"/>
    </g>
    <path id="path3732" d="M293.88,75.791C294.206,74.164 293.964,71.882 293.342,70.72C291.974,68.164 287.22,65.564 284.071,65.651L281.771,65.715L283.963,66.597C287.573,68.052 289.414,71.925 289.414,78.065L289.414,83.676L291.351,81.213C292.417,79.858 293.555,77.419 293.88,75.791L293.88,75.791Z" style="fill:white;fill-rule:nonzero;"/>
    <path id="path3730" d="M27.982,87.393C23.347,81.203 21.874,77.304 21.822,71.088C21.747,62.188 24.366,58.062 39.28,43.588C53.012,30.26 57.398,23.595 58.862,13.827C59.225,11.408 60.163,9.183 60.947,8.882C64.696,7.443 72.194,19.643 72.996,28.487C73.922,38.699 68.361,47.5 53.541,59.28C44.123,66.765 38.836,73.975 35.716,83.588C33.245,91.2 31.483,92.068 27.982,87.393Z" style="fill-rule:nonzero;"/>
    <path id="path3726" d="M33.223,83.338C35.465,75.827 40.573,67.6 46.302,62.276C52.407,56.602 56.036,53.588 56.762,53.588C57.685,53.588 65.815,44.317 67.962,40.815C72.493,33.427 71.807,25.072 65.954,16.34C64.203,13.728 62.491,11.591 62.149,11.59C61.807,11.589 60.851,15.812 60.851,15.812C60.851,15.812 53.596,33.845 35.465,50.988C25.371,60.532 22.547,66.394 24.291,74.179C25.215,78.301 30.108,87.588 31.355,87.588C31.685,87.588 32.525,85.675 33.223,83.338Z" style="fill-rule:nonzero;"/>
    <path id="path4579" d="M30.525,89.814C29.631,89.269 28.23,87.637 26.648,85.295C24.864,82.655 24.149,81.376 23.406,79.495C22.276,76.633 22.054,75.177 22.069,70.72C22.085,66.023 22.345,64.705 23.863,61.621C25.833,57.618 27.909,55.197 38.898,44.091C43.728,39.209 48.399,34.352 49.278,33.298C55.119,26.295 57.455,21.748 58.781,14.803C59.608,10.473 60.343,8.889 61.528,8.889C62.511,8.889 63.524,9.484 64.89,10.864C68.059,14.065 71.369,20.696 72.614,26.339C72.969,27.942 72.966,33.227 72.61,34.811C70.853,42.634 65.525,49.406 53.324,59.328C46.261,65.071 41.491,70.664 38.422,76.797C37.11,79.42 36.749,80.3 35.534,83.832C34.074,88.077 32.757,90.188 31.572,90.186C31.33,90.186 30.859,90.019 30.525,89.814L30.525,89.814Z" style="fill:rgb(226,2,0);fill-opacity:0;fill-rule:nonzero;"/>
    <path id="path4581" d="M30.525,89.814C29.631,89.269 28.23,87.637 26.648,85.295C24.864,82.655 24.149,81.376 23.406,79.495C22.276,76.633 22.054,75.177 22.069,70.72C22.085,66.023 22.345,64.705 23.863,61.621C25.833,57.618 27.909,55.197 38.898,44.091C43.728,39.209 48.399,34.352 49.278,33.298C55.119,26.295 57.455,21.748 58.781,14.803C59.608,10.473 60.343,8.889 61.528,8.889C62.511,8.889 63.524,9.484 64.89,10.864C68.059,14.065 71.369,20.696 72.614,26.339C72.969,27.942 72.966,33.227 72.61,34.811C70.853,42.634 65.525,49.406 53.324,59.328C46.261,65.071 41.491,70.664 38.422,76.797C37.11,79.42 36.749,80.3 35.534,83.832C34.074,88.077 32.757,90.188 31.572,90.186C31.33,90.186 30.859,90.019 30.525,89.814L30.525,89.814Z" style="fill:rgb(226,2,0);fill-opacity:0;fill-rule:nonzero;"/>
    <path id="path4583" d="M30.13,89.528C29.079,88.735 26.409,85.21 25.029,82.794C22.955,79.162 22.144,76.325 21.955,72.031C21.693,66.064 23.004,61.938 26.693,57.119C28.844,54.309 31.235,51.757 38.618,44.391C46.48,36.546 49.352,33.422 52.031,29.805C55.958,24.502 57.773,20.445 58.815,14.638C59.287,12.007 59.936,10.048 60.559,9.376C62.736,7.027 68.521,13.855 71.402,22.173C72.476,25.271 72.933,27.795 72.929,30.607C72.922,36.967 70.481,42.382 64.661,48.946C62.217,51.702 59.382,54.313 54.07,58.699C43.805,67.175 39.212,73.298 35.824,83.026C34.465,86.927 33.578,88.772 32.684,89.557C31.773,90.357 31.22,90.351 30.13,89.528L30.13,89.528Z" style="fill:rgb(226,2,13);fill-opacity:0;fill-rule:nonzero;"/>
    <path id="path4585" d="M30.525,89.814C29.631,89.269 28.23,87.637 26.648,85.295C24.864,82.655 24.149,81.376 23.406,79.495C22.276,76.633 22.054,75.177 22.069,70.72C22.085,66.023 22.345,64.705 23.863,61.621C25.833,57.618 27.909,55.197 38.898,44.091C43.728,39.209 48.399,34.352 49.278,33.298C55.119,26.295 57.455,21.748 58.781,14.803C59.608,10.473 60.343,8.889 61.528,8.889C62.511,8.889 63.524,9.484 64.89,10.864C68.059,14.065 71.369,20.696 72.614,26.339C72.969,27.942 72.966,33.227 72.61,34.811C70.853,42.634 65.525,49.406 53.324,59.328C46.261,65.071 41.491,70.664 38.422,76.797C37.11,79.42 36.749,80.3 35.534,83.832C34.074,88.077 32.757,90.188 31.572,90.186C31.33,90.186 30.859,90.019 30.525,89.814L30.525,89.814Z" style="fill:rgb(255,0,0);fill-rule:nonzero;stroke:black;stroke-width:0.35px;"/>
    <g transform="matrix(0.948276,0,0,0.917287,-27,8.46332)">
        <ellipse cx="101.5" cy="132.01" rx="14.5" ry="14.99" style="fill:white;stroke:white;stroke-width:1.07px;stroke-linecap:round;stroke-miterlimit:1.5;"/>
    </g>
</svg>
