<?xml version="1.0" encoding="UTF-8" standalone="no"?>
<!DOCTYPE svg PUBLIC "-//W3C//DTD SVG 1.1//EN" "http://www.w3.org/Graphics/SVG/1.1/DTD/svg11.dtd">
<svg width="100%" height="100%" viewBox="0 0 334 163" version="1.1" xmlns="http://www.w3.org/2000/svg" xmlns:xlink="http://www.w3.org/1999/xlink" xml:space="preserve" xmlns:serif="http://www.serif.com/" style="fill-rule:evenodd;clip-rule:evenodd;stroke-linejoin:round;stroke-miterlimit:1.41421;">
    <g id="path3768" transform="matrix(1,0,0,1,-19,0)">
        <path d="M44.575,116.359C34.847,101.871 35.757,93.833 51.18,77.688C52.717,76.08 54.398,74.391 56.227,72.607C60.88,68.068 64.352,64.482 66.994,61.32C72.263,55.014 74.233,50.39 75.691,43.244C76.368,39.922 77.411,37.041 78.007,36.843C79.603,36.31 84.041,41.373 86.988,47.088C88.743,50.491 89.693,54.164 89.962,58.588C90.565,68.51 87.517,73.458 72.665,86.662C59.328,98.519 55.985,102.85 52.761,112.447C50.106,120.352 47.948,121.383 44.575,116.359Z" style="fill:rgb(236,130,8);fill-rule:nonzero;stroke:black;stroke-width:0.31px;"/>
    </g>
    <g id="path3766" transform="matrix(1,0,0,1,-19,0)">
        <path d="M53.86,103.161C57.065,96.939 61.239,92.495 72.303,83.527C81.403,76.15 86.896,68.676 87.938,62.253C88.69,57.616 86.064,49.525 81.932,43.747L78.771,39.329L78.472,42.208C78.071,46.08 77.091,49.728 75.368,53.41C75.368,53.41 66.49,67.108 57.235,75.757C46.925,85.39 42.358,91.534 40.91,97.717C40.073,101.289 42.499,108.888 45.903,113.349L48.703,117.02L49.975,112.627C50.674,110.211 52.423,105.951 53.86,103.161Z" style="fill:rgb(236,130,8);fill-rule:nonzero;"/>
    </g>
    <g id="path3730" transform="matrix(1,0,0,1,-19,0)">
        <path d="M27.982,87.393C23.347,81.203 21.874,77.304 21.822,71.088C21.747,62.188 24.366,58.062 39.28,43.588C53.012,30.26 57.398,23.595 58.862,13.827C59.225,11.408 60.163,9.183 60.947,8.882C64.696,7.443 72.194,19.643 72.996,28.487C73.922,38.699 68.361,47.5 53.541,59.28C44.123,66.765 38.836,73.975 35.716,83.588C33.245,91.2 31.483,92.068 27.982,87.393Z" style="fill-rule:nonzero;"/>
    </g>
    <g id="path3726" transform="matrix(1,0,0,1,-19,0)">
        <path d="M33.223,83.338C35.465,75.827 40.573,67.6 46.302,62.276C52.407,56.602 56.036,53.588 56.762,53.588C57.685,53.588 65.815,44.317 67.962,40.815C72.493,33.427 71.807,25.072 65.954,16.34C64.203,13.728 62.491,11.591 62.149,11.59C61.807,11.589 60.851,15.812 60.851,15.812C60.851,15.812 53.596,33.845 35.465,50.988C25.371,60.532 22.547,66.394 24.291,74.179C25.215,78.301 30.108,87.588 31.355,87.588C31.685,87.588 32.525,85.675 33.223,83.338Z" style="fill-rule:nonzero;"/>
    </g>
    <g id="path4579" transform="matrix(1,0,0,1,-19,0)">
        <path d="M30.525,89.814C29.631,89.269 28.23,87.637 26.648,85.295C24.864,82.655 24.149,81.376 23.406,79.495C22.276,76.633 22.054,75.177 22.069,70.72C22.085,66.023 22.345,64.705 23.863,61.621C25.833,57.618 27.909,55.197 38.898,44.091C43.728,39.209 48.399,34.352 49.278,33.298C55.119,26.295 57.455,21.748 58.781,14.803C59.608,10.473 60.343,8.889 61.528,8.889C62.511,8.889 63.524,9.484 64.89,10.864C68.059,14.065 71.369,20.696 72.614,26.339C72.969,27.942 72.966,33.227 72.61,34.811C70.853,42.634 65.525,49.406 53.324,59.328C46.261,65.071 41.491,70.664 38.422,76.797C37.11,79.42 36.749,80.3 35.534,83.832C34.074,88.077 32.757,90.188 31.572,90.186C31.33,90.186 30.859,90.019 30.525,89.814L30.525,89.814Z" style="fill:rgb(226,2,0);fill-opacity:0;fill-rule:nonzero;"/>
    </g>
    <g id="path4581" transform="matrix(1,0,0,1,-19,0)">
        <path d="M30.525,89.814C29.631,89.269 28.23,87.637 26.648,85.295C24.864,82.655 24.149,81.376 23.406,79.495C22.276,76.633 22.054,75.177 22.069,70.72C22.085,66.023 22.345,64.705 23.863,61.621C25.833,57.618 27.909,55.197 38.898,44.091C43.728,39.209 48.399,34.352 49.278,33.298C55.119,26.295 57.455,21.748 58.781,14.803C59.608,10.473 60.343,8.889 61.528,8.889C62.511,8.889 63.524,9.484 64.89,10.864C68.059,14.065 71.369,20.696 72.614,26.339C72.969,27.942 72.966,33.227 72.61,34.811C70.853,42.634 65.525,49.406 53.324,59.328C46.261,65.071 41.491,70.664 38.422,76.797C37.11,79.42 36.749,80.3 35.534,83.832C34.074,88.077 32.757,90.188 31.572,90.186C31.33,90.186 30.859,90.019 30.525,89.814L30.525,89.814Z" style="fill:rgb(226,2,0);fill-opacity:0;fill-rule:nonzero;"/>
    </g>
    <g id="path4583" transform="matrix(1,0,0,1,-19,0)">
        <path d="M30.13,89.528C29.079,88.735 26.409,85.21 25.029,82.794C22.955,79.162 22.144,76.325 21.955,72.031C21.693,66.064 23.004,61.938 26.693,57.119C28.844,54.309 31.235,51.757 38.618,44.391C46.48,36.546 49.352,33.422 52.031,29.805C55.958,24.502 57.773,20.445 58.815,14.638C59.287,12.007 59.936,10.048 60.559,9.376C62.736,7.027 68.521,13.855 71.402,22.173C72.476,25.271 72.933,27.795 72.929,30.607C72.922,36.967 70.481,42.382 64.661,48.946C62.217,51.702 59.382,54.313 54.07,58.699C43.805,67.175 39.212,73.298 35.824,83.026C34.465,86.927 33.578,88.772 32.684,89.557C31.773,90.357 31.22,90.351 30.13,89.528L30.13,89.528Z" style="fill:rgb(226,2,13);fill-opacity:0;fill-rule:nonzero;"/>
    </g>
    <g id="path4585" transform="matrix(1,0,0,1,-19,0)">
        <path d="M30.525,89.814C29.631,89.269 28.23,87.637 26.648,85.295C24.864,82.655 24.149,81.376 23.406,79.495C22.276,76.633 22.054,75.177 22.069,70.72C22.085,66.023 22.345,64.705 23.863,61.621C25.833,57.618 27.909,55.197 38.898,44.091C43.728,39.209 48.399,34.352 49.278,33.298C55.119,26.295 57.455,21.748 58.781,14.803C59.608,10.473 60.343,8.889 61.528,8.889C62.511,8.889 63.524,9.484 64.89,10.864C68.059,14.065 71.369,20.696 72.614,26.339C72.969,27.942 72.966,33.227 72.61,34.811C70.853,42.634 65.525,49.406 53.324,59.328C46.261,65.071 41.491,70.664 38.422,76.797C37.11,79.42 36.749,80.3 35.534,83.832C34.074,88.077 32.757,90.188 31.572,90.186C31.33,90.186 30.859,90.019 30.525,89.814L30.525,89.814Z" style="fill:rgb(255,0,0);fill-rule:nonzero;stroke:black;stroke-width:0.35px;"/>
    </g>
    <g transform="matrix(0.948276,0,0,0.917287,-46,8.46332)">
        <ellipse cx="101.5" cy="132.01" rx="14.5" ry="14.99" style="fill:rgb(255,0,0);stroke:black;stroke-width:0.57px;stroke-linecap:round;stroke-miterlimit:1.5;"/>
    </g>
    <g transform="matrix(1.12718,0,0,1.10802,-49.7749,44.5061)">
        <path d="M120.455,13.058C120.455,12.718 120.649,12.427 121.037,12.185C121.425,11.942 121.862,11.821 122.347,11.821L124.311,11.821C125.475,11.821 127.354,11.894 129.949,12.039C132.544,12.185 135.927,12.257 140.098,12.257L156.612,11.894C157.437,11.894 157.849,12.476 157.849,13.64C157.849,14.27 157.704,15.41 157.413,17.059C157.122,18.708 156.928,20.03 156.831,21.024C156.734,22.018 156.358,22.515 155.703,22.515C155.048,22.515 154.721,22.03 154.721,21.06C154.721,17.859 153.605,16.186 151.374,16.041C144.051,15.459 139.492,15.168 137.697,15.168C135.903,15.168 134.751,15.434 134.241,15.968C133.732,16.501 133.453,17.593 133.405,19.242L133.405,19.824C133.259,22.443 133.187,26.492 133.187,31.973C133.187,34.35 133.623,35.562 134.496,35.611L136.315,35.683L139.443,35.611L141.698,35.611C144.608,35.611 146.536,35.526 147.482,35.356C148.428,35.186 149.204,34.895 149.81,34.483C150.416,34.071 150.841,33.671 151.083,33.283C151.326,32.895 151.496,32.434 151.593,31.9C151.69,31.367 151.811,30.979 151.956,30.736C152.102,30.494 152.393,30.373 152.829,30.373C153.266,30.373 153.533,30.445 153.63,30.591C153.727,30.736 153.775,31.015 153.775,31.427C153.775,31.84 153.666,32.725 153.448,34.083C153.229,35.441 153.12,36.605 153.12,37.575L153.63,43.541C153.63,44.317 153.545,44.814 153.375,45.032C153.205,45.25 152.951,45.359 152.611,45.359C151.787,45.359 151.277,44.753 151.083,43.541C151.083,42.473 150.962,41.722 150.72,41.285C150.235,40.606 149.737,40.158 149.228,39.939C148.719,39.721 147.591,39.515 145.845,39.321C144.099,39.127 142.959,39.03 142.426,39.03L136.097,39.03C134.108,39.03 133.114,39.491 133.114,40.412L132.968,50.888L132.896,53.798C132.896,54.768 132.993,55.738 133.187,56.709C133.381,57.679 133.95,58.697 134.896,59.764C135.842,60.831 137.079,61.365 138.606,61.365C140.134,61.365 140.898,61.801 140.898,62.674C140.898,63.111 140.668,63.45 140.207,63.693C139.746,63.935 139.225,64.056 138.643,64.056L131.586,63.474L122.783,63.911C121.813,63.911 121.328,63.644 121.328,63.111C121.328,62.48 121.437,62.092 121.655,61.947C121.874,61.801 122.807,61.437 124.456,60.855C125.717,60.419 126.493,59.109 126.784,56.927C127.124,54.453 127.294,48.075 127.294,37.793L127.512,25.134L127.512,20.915C127.512,17.714 126.372,15.58 124.093,14.513C123.414,14.222 122.638,14.076 121.765,14.076C120.892,14.076 120.455,13.737 120.455,13.058Z" style="fill-rule:nonzero;stroke:black;stroke-width:1.79px;"/>
        <path d="M167.671,37.939L167.889,25.353C167.889,24.043 167.84,21.836 167.743,18.732C167.695,17.326 167.089,16.235 165.925,15.459C164.761,14.682 163.669,14.282 162.651,14.258C161.632,14.234 161.062,14.137 160.941,13.967C160.82,13.797 160.759,13.543 160.759,13.203C160.759,12.33 161.414,11.894 162.724,11.894L164.688,12.039L171.017,12.33L178.656,12.039C179.481,12.039 179.893,12.282 179.893,12.767C179.893,13.446 179.602,13.894 179.02,14.113C178.438,14.331 177.795,14.476 177.092,14.549C176.389,14.622 175.71,15.155 175.055,16.15C174.4,17.144 174.024,18.611 173.927,20.551C173.83,22.491 173.709,27.802 173.563,36.484C173.418,45.165 173.345,50.015 173.345,51.034L173.345,53.944C173.345,57.436 173.939,59.364 175.128,59.728C176.316,60.091 177.347,60.273 178.22,60.273C185.495,60.273 190.733,59.691 193.934,58.527C196.844,57.46 198.59,56.345 199.172,55.181C199.802,53.968 200.36,53.362 200.845,53.362C201.427,53.362 201.718,53.774 201.718,54.599C201.718,56.684 200.675,58.794 198.59,60.928C196.504,63.062 194.686,64.129 193.134,64.129C189.642,64.129 185.701,64.008 181.312,63.765C176.922,63.523 174.194,63.402 173.127,63.402L164.033,63.984C162.627,63.984 161.923,63.693 161.923,63.111C161.923,62.771 162.057,62.492 162.323,62.274C162.59,62.056 162.966,61.947 163.451,61.947C163.936,61.947 164.567,61.656 165.343,61.074C166.119,60.492 166.701,59.291 167.089,57.472C167.477,55.654 167.671,52.149 167.671,46.96L167.671,37.939Z" style="fill-rule:nonzero;stroke:black;stroke-width:1.79px;"/>
        <path d="M212.995,63.765L206.738,64.056C205.332,64.056 204.628,63.765 204.628,63.183C204.628,62.504 204.992,62.044 205.72,61.801C207.272,61.219 208.63,59.922 209.794,57.909C210.958,55.896 213.88,49.809 218.56,39.648C223.241,29.487 227.399,20.527 231.037,12.767C231.377,12.039 231.68,11.578 231.946,11.384C232.213,11.19 232.601,11.093 233.11,11.093C233.62,11.093 233.947,11.19 234.093,11.384C234.238,11.578 234.505,12.233 234.893,13.349C235.281,14.464 235.584,15.313 235.802,15.895C236.021,16.477 236.372,17.423 236.857,18.732C237.342,20.042 238.118,22.006 239.185,24.625C240.252,27.244 242.689,32.979 246.497,41.831C250.304,50.682 252.499,55.702 253.081,56.89C253.663,58.079 254.463,59.097 255.481,59.946C256.5,60.795 257.385,61.255 258.137,61.328C258.889,61.401 259.519,61.522 260.028,61.692C260.538,61.862 260.792,62.238 260.792,62.82C260.792,63.547 260.138,63.911 258.828,63.911L252.28,63.474L245.515,63.765C244.011,63.765 243.053,63.705 242.641,63.584C242.229,63.462 242.022,63.208 242.022,62.82C242.022,62.432 242.216,62.128 242.604,61.91C242.993,61.692 243.405,61.546 243.841,61.474C244.278,61.401 244.69,61.183 245.078,60.819C245.466,60.455 245.66,59.849 245.66,59C245.66,58.151 245.054,56.078 243.841,52.78C242.629,49.482 241.61,47.057 240.786,45.505C240.349,44.68 239.355,44.268 237.803,44.268L229,44.414L225.144,44.414C222.962,44.414 221.591,44.535 221.034,44.777C220.476,45.02 220.015,45.529 219.651,46.305C219.288,47.081 218.766,48.16 218.087,49.542C217.408,50.925 216.948,51.883 216.705,52.416C216.463,52.95 216.172,53.629 215.832,54.453C215.201,55.908 214.886,57.121 214.886,58.091C214.886,59.061 215.165,59.837 215.723,60.419C216.281,61.001 216.899,61.34 217.578,61.437C219.373,61.583 220.27,62.044 220.27,62.82C220.27,63.159 220.197,63.414 220.052,63.584C219.906,63.753 219.567,63.838 219.033,63.838L212.995,63.765ZM230.528,22.297C230.091,22.297 228.709,24.977 226.381,30.336C224.053,35.695 222.889,38.666 222.889,39.248C222.889,39.83 223.107,40.194 223.544,40.339C223.98,40.485 224.999,40.558 226.599,40.558L228.854,40.558L235.766,40.485C237.657,40.485 238.603,40.133 238.603,39.43C238.603,38.727 237.415,35.695 235.038,30.336C232.662,24.977 231.158,22.297 230.528,22.297Z" style="fill-rule:nonzero;stroke:black;stroke-width:1.79px;"/>
        <path d="M270.905,34.519L270.978,26.662L270.978,23.316C270.978,21.182 270.893,19.472 270.723,18.187C270.553,16.901 269.898,15.944 268.759,15.313C267.619,14.682 266.491,14.343 265.376,14.294C264.26,14.246 263.702,13.87 263.702,13.167C263.702,12.464 264.381,12.112 265.739,12.112L273.96,12.403L280.362,12.257C281.672,12.257 282.327,12.597 282.327,13.276C282.327,13.664 281.211,14.319 278.98,15.24C277.428,15.871 276.652,18.66 276.652,23.607L276.434,50.525C276.434,54.599 277.004,57.46 278.144,59.109C279.283,60.758 280.484,61.583 281.745,61.583L283.2,61.656C283.539,61.656 283.879,61.74 284.218,61.91C284.558,62.08 284.728,62.359 284.728,62.747C284.728,63.426 284.121,63.765 282.909,63.765L275.997,63.474L267.995,63.838C265.812,63.838 264.721,63.474 264.721,62.747C264.721,62.068 265.473,61.631 266.976,61.437C267.558,61.389 268.164,61.086 268.795,60.528C269.425,59.97 269.826,59.34 269.995,58.636C270.165,57.933 270.359,54.999 270.577,49.834C270.796,44.668 270.905,40.946 270.905,38.666L270.905,34.519Z" style="fill-rule:nonzero;stroke:black;stroke-width:1.79px;"/>
        <path d="M294.694,32.628L294.622,20.333C294.622,18.538 294.258,17.168 293.53,16.222C292.803,15.277 291.991,14.743 291.093,14.622C290.196,14.501 289.384,14.343 288.656,14.149C287.929,13.955 287.565,13.615 287.565,13.13C287.565,12.354 288.268,11.966 289.675,11.966L301.751,11.966L309.026,11.748C313.392,11.748 317.126,12.852 320.23,15.058C323.334,17.265 324.886,20.236 324.886,23.97C324.886,26.444 324.413,28.614 323.468,30.482C322.522,32.349 321.479,33.695 320.339,34.519C319.2,35.344 318.157,36.059 317.211,36.666C316.265,37.272 315.792,37.672 315.792,37.866C315.792,38.448 317.829,41.588 321.903,47.287C325.978,52.986 328.766,56.636 330.27,58.236C332.113,60.516 334.344,61.656 336.963,61.656C337.642,61.656 337.981,61.947 337.981,62.529C337.981,63.256 337.69,63.741 337.108,63.984C336.526,64.226 335.059,64.347 332.707,64.347C330.355,64.347 328.233,63.79 326.341,62.674C323.722,61.171 319.381,55.35 313.319,45.214C310.991,41.431 309.196,39.539 307.935,39.539L301.97,39.539C301.388,39.539 301.036,39.782 300.915,40.267C300.793,40.752 300.733,42.182 300.733,44.559C300.733,44.559 300.733,46.523 300.733,50.452L300.806,54.308C300.806,54.308 300.806,54.526 300.806,54.962C300.806,56.951 301.266,58.491 302.188,59.582C303.109,60.673 304.14,61.304 305.28,61.474C306.42,61.643 307.45,61.837 308.372,62.056C309.293,62.274 309.754,62.626 309.754,63.111C309.754,63.887 309.317,64.275 308.444,64.275C308.444,64.275 304.977,64.105 298.041,63.765L290.038,64.056C289.02,64.056 288.511,63.668 288.511,62.892C288.511,62.068 289.529,61.534 291.566,61.292C292.342,61.195 293.045,60.661 293.676,59.691C294.306,58.721 294.622,57.339 294.622,55.544L294.694,32.628ZM300.733,24.771C300.733,29.766 300.757,32.858 300.806,34.046C300.854,35.235 301.024,35.926 301.315,36.12C302.042,36.556 303.085,36.775 304.443,36.775L307.28,36.775C311.403,36.775 314.349,35.829 316.12,33.937C317.89,32.046 318.775,29.609 318.775,26.626C318.775,23.643 317.599,20.915 315.247,18.441C312.894,15.968 309.342,14.731 304.589,14.731C302.794,14.731 301.703,15.204 301.315,16.15C300.927,17.095 300.733,19.29 300.733,22.734L300.733,24.771Z" style="fill-rule:nonzero;stroke:black;stroke-width:1.79px;"/>
    </g>
</svg>
